/* XPM */
static char *result[] = {
/* columns rows colors chars-per-pixel */
"32 32 150 2 ",
"   c #765A2F",
".  c #7F5E2E",
"X  c #6F5633",
"o  c #755536",
"O  c #7A5535",
"+  c #755D34",
"@  c #7A5D34",
"#  c #7A563A",
"$  c #755B3B",
"%  c #7C5D3B",
"&  c #75602F",
"*  c #7B612E",
"=  c #7D6334",
"-  c #7E6936",
";  c #74623B",
":  c #7B623B",
">  c #7E6A3B",
",  c #785A44",
"<  c #7B6342",
"1  c #7D6841",
"2  c #7E6549",
"3  c #7D6D51",
"4  c #845737",
"5  c #815D33",
"6  c #80553D",
"7  c #846234",
"8  c #856A34",
"9  c #886F37",
"0  c #83643C",
"q  c #8B643E",
"w  c #856B3D",
"e  c #8C6C3D",
"r  c #906234",
"t  c #936D35",
"y  c #93663D",
"u  c #926D3C",
"i  c #986F3C",
"p  c #8C7337",
"a  c #8E7A37",
"s  c #84723E",
"d  c #8D733D",
"f  c #857A3D",
"g  c #8D7A3D",
"h  c #927537",
"j  c #987533",
"k  c #977F34",
"l  c #9B7836",
"z  c #92743D",
"x  c #99733C",
"c  c #937B3D",
"v  c #9A7B3C",
"b  c #A2723B",
"n  c #A9733A",
"m  c #A37A3F",
"M  c #836542",
"N  c #8B6542",
"B  c #856A45",
"V  c #8B6B44",
"C  c #826748",
"Z  c #876C4B",
"A  c #8C6C4A",
"S  c #916141",
"D  c #926C42",
"F  c #9C6E46",
"G  c #926648",
"H  c #916D4B",
"J  c #867245",
"K  c #8C7344",
"L  c #867942",
"P  c #8D7B44",
"I  c #847349",
"U  c #8C734A",
"Y  c #8D7A49",
"T  c #927343",
"R  c #9A7446",
"E  c #937A44",
"W  c #9C7C44",
"Q  c #91744B",
"!  c #9C764A",
"~  c #917A4B",
"^  c #9C7D4C",
"/  c #896755",
"(  c #8A6D50",
")  c #8D7452",
"_  c #8E7B54",
"`  c #9B7651",
"'  c #937B52",
"]  c #9B7C55",
"[  c #987E5A",
"{  c #A47D45",
"}  c #A37D4B",
"|  c #A07E53",
" . c #AE7F51",
".. c #96812E",
"X. c #968135",
"o. c #94823B",
"O. c #9B863A",
"+. c #A3863B",
"@. c #A8823F",
"#. c #A48C3F",
"$. c #B3893B",
"%. c #BF993F",
"&. c #8E8047",
"*. c #948143",
"=. c #9F8346",
"-. c #9F8C45",
";. c #9D864B",
":. c #97884A",
">. c #9C8D49",
",. c #9B8352",
"<. c #9C8D55",
"1. c #9F825A",
"2. c #A18444",
"3. c #A98343",
"4. c #A38C44",
"5. c #AA8E43",
"6. c #A1844C",
"7. c #AE8549",
"8. c #A38A4C",
"9. c #AA8E4D",
"0. c #BC8D45",
"q. c #B18D4D",
"w. c #A49240",
"e. c #AC9747",
"r. c #A5914A",
"t. c #AA934A",
"y. c #AB9E49",
"u. c #B79241",
"i. c #BF9345",
"p. c #B59D45",
"a. c #B3944B",
"s. c #B49C4C",
"d. c #BA9B4A",
"f. c #A28353",
"g. c #AA8753",
"h. c #A48B54",
"j. c #A98D51",
"k. c #A18B59",
"l. c #B18D53",
"z. c #A99A52",
"x. c #A6975C",
"c. c #AF9359",
"v. c #B49253",
"b. c #B79F52",
"n. c #BA9E53",
"m. c #AEAE4C",
"M. c #BDA545",
"N. c #B3A14E",
"B. c #BDA650",
"V. c #C39A47",
/* pixels */
"j $ ] V A U 8.N F u I :.: y D 0 0 R K o.@ 0 E ~ E X.e < U i # e ",
"A E = z z l.U 8 = A V p p 8.V I ) z K E e L E , s W A U 1 P c r ",
"F H T h 0 E A E - D # % O.,.' 6.V 2.O ) E K E U U @ x D Q E E q.",
"p V D S e : : @.% c O V ~ ,.N.a d E Y y.Q n.] A I Q q 0 E t ;.E ",
"H E D +.,.V Y T U ) D E U U = % t e v h *.c P u K w H u e o.Y n ",
"K A E { K $ z K N E A K c r.c $.q U E z E d A s.A y 0 a [ 6 c D ",
"l.V h U ;.2 ~ K @ ~ { d.~ g.e f J @ ~ P N V e ,.p.>.D Q i E K E ",
"e V A O V 4.B.m < T x Q q i Y % ( y A z 8.E Y M d.e A ` x e E _ ",
"K x V t : * ~ ) c ~ K P Q s.z P c A w e E z c / @ R I ~ U V > A ",
"*.z ,.= T 6.~ 5.E ~ T g K g : ! P A w 3.V U W L ~ K ' = U K f U ",
"' D $ e ; E T 6.E K V.V z E A Q + V 8 T V 7.K L ) : I c K K G A ",
"$ N *.c ; K V K Q U h 4.2 % e E G 6.0.% V y A r.R k.7 1.J p ' V ",
"e 1 c 8.J y i w V.W z Q E <.H : ~ a.a P U z ^ # = X.R U ~ t @ K ",
"L V x % H V J u v E f.e.N h x e 8 z L & s : K h ) d V M z B : Q ",
"c ~ w R E | z A 6.z 8 E = K E z c R T 3 z ~ + k.t.U { E w z U 5 ",
"K c s f.K E ~ z O d O.T { D :.8.p.z u A K K E W z h.B Q e R x T ",
"z @ T E V ~ < e 7 K K U T c P s % A R 8 K K K N 6.D =.V E *.a D ",
"Y u g t j.A K Y  .~ d 5.j V ` n.q O.~ ! p z T A s.q.x < 6.5 k.Y ",
"V c E P ; z U T E ^ D 8.D d M h s.~ d 8 9.} - ;.I ,.A x P $.Q 4.",
"B A L Q f d z #.h K 7 T z s 9.G T { Q E P N Q c.M R z ] R = z 4 ",
"A *.v.E < K E $ 8.T K a V 8 G M p ) x d A ) p c 8 8.6.E z v N x ",
"z 8.1 Z V H A : 4.s.X Y d h < P b Q A 0 9.K s.: V c 6.V U d K e ",
"R ) ~ A > : @.} K A K K U ] y ] *.q m.V 2 T % K u.K U T ..c E = ",
"J ( D E a.K E P E Q p x.o ~ e > c K h z K E % J a.I z , p V V K ",
"^ @ D U U ^ o.x K Q c = z z U z > x p.r.T t.T U E | =.W E w V G ",
"v U o.7 E P z K U E -.T f.U Q B d D v *.e ( U 7 E Q M.x O.U B V ",
"} U T L v : 6.u O y U M { E U R ~ % d E E U h = Q A H C P e.8.z ",
"o Q W : =.6.e e G @ V z.d c E K 4.~ V H : U ; E B 5.D R U a T N ",
"q E D ; Q V s.9 A E K E 4 e M.E E } s O i.V : : E ( E X E :   ~ ",
": v.d K w T i g.: e P l =.P c 8.j.@.c K ! E Z : U N ) U c z c E ",
"K V h V U A P z 6.M P P ) P ~ o.J A P T 8.8.z V D E T d ( ` T = ",
"t.B Q @.V s A K w z ~ #.Z s e + b s.% K ^ D z a.K H e %.~ c 0 Y "
};
