/* XPM */
static char *result[] = {
/* columns rows colors chars-per-pixel */
"32 32 45 1 ",
"  c black",
". c #2D002D",
"X c #370037",
"o c #4B004B",
"O c #5E005E",
"+ c #7F007F",
"@ c #FF706E",
"# c #FF9671",
"$ c #A1FF74",
"% c #DBFF71",
"& c #FBFF70",
"* c #6E73FF",
"= c #9E009E",
"- c #BC00BC",
"; c #FF788F",
": c #D700D7",
"> c #F200F2",
", c magenta",
"< c #9675FF",
"1 c #F76CFF",
"2 c #78FFB6",
"3 c #7488FF",
"4 c #79C2FF",
"5 c #FF849F",
"6 c #FF85B3",
"7 c #FF87BE",
"8 c #85FF87",
"9 c #A3FF9F",
"0 c #B5FF9F",
"q c #99FFAB",
"w c #80FFB1",
"e c #94FFB4",
"r c #FFC78D",
"t c #FFD98A",
"y c #FFF683",
"u c #FFEB90",
"i c #83B6FF",
"p c #FF9EFF",
"a c #87FFC9",
"s c #9CFFDF",
"d c #A2CBFF",
"f c #85FFF4",
"g c #81F2FF",
"h c white",
"j c None",
/* pixels */
"jjjjjjjjjjjjjjjjjjjjjjjjjjjjjjjj",
"jjjjjjjjjjjjjjjjjjjjjjjjjjjjjjjj",
"jjjjjjjjjjjjjjjjjjjjjjjjjjjjjjjj",
"jjjjjjjjjjjjjjj2wjjjjjjjjjjjjjjj",
"jjjjjjjjjjjjjja  ejjjjjjjjjjjjjj",
"jjjjjjjjjjjjjj :+ jjjjjjjjjjjjjj",
"jjjjjjjjjjjjjs :+ qjjjjjjjjjjjjj",
"jjjjjjjjjjjjj +>o+ jjjjjjjjjjjjj",
"jjjjjjjjjjjjj +>O+ 8jjjjjjjjjjjj",
"jjjjjjjjjjjjf +,.+ 9jjjjjjjjjjjj",
"jjjjj4jjjjjg =o>,o= 0$jjjjjjjjjj",
"jjjid       =o+-,Oo:       %jjjj",
"jjjj >,,,>:=oO+-p-XO::,,::+ jjjj",
"jjjjj =X.OXOX+-,p-OoOOXXX+ jjjjj",
"jjjjjj =X.+oX-,ph,-+OXX.+ &jjjjj",
"jjjjjj3 +XX+-,phhp,-+O.+ yjjjjjj",
"jjjjjjj* =X+--,p,,:+X.o ujjjjjjj",
"jjjjjjjjj .oo--,,:-O.o tjjjjjjjj",
"jjjjjjjjj< +o+-:--oo. rjjjjjjjjj",
"jjjjjjjjjjo:oo+-oXOo+.jjjjjjjjjj",
"jjjjjjjjj :+XOXo.XXoO+ jjjjjjjjj",
"jjjjjjjjj :oX.+  +.Xo- #jjjjjjjj",
"jjjjjjjj :+X.+ jj o..o- jjjjjjjj",
"jjjjjjjj :o.+ jjj7 +..- jjjjjjjj",
"jjjjjjj =+.o jjjjj6 o.O+ jjjjjjj",
"jjjjjjj =. 1jjjjjjjj5 .o jjjjjjj",
"jjjjjjjj  jjjjjjjjjjj;  @jjjjjjj",
"jjjjjjjjjjjjjjjjjjjjjjjjjjjjjjjj",
"jjjjjjjjjjjjjjjjjjjjjjjjjjjjjjjj",
"jjjjjjjjjjjjjjjjjjjjjjjjjjjjjjjj",
"jjjjjjjjjjjjjjjjjjjjjjjjjjjjjjjj",
"jjjjjjjjjjjjjjjjjjjjjjjjjjjjjjjj"
};
