/* XPM */
static char *eb211be01fa3479d872d9ebf745f628fPLSZfzT5VaPrgyvV[] = {
/* columns rows colors chars-per-pixel */
"32 32 209 2 ",
"   c None",
".  c #B66424",
"X  c #B86723",
"o  c #BD6427",
"O  c #BB6C22",
"+  c #BF7220",
"@  c #C67C1C",
"#  c #C76E25",
"$  c #C56C26",
"%  c #CA7125",
"&  c #D17923",
"*  c #D27923",
"=  c #D37A23",
"-  c #D57D22",
";  c #D67D22",
":  c #D77D22",
">  c #D77E22",
",  c #D87E22",
"<  c #D87F22",
"1  c #D97F22",
"2  c #C9801B",
"3  c #C9811B",
"4  c #CD8619",
"5  c #CD8719",
"6  c #CE8719",
"7  c #CF8918",
"8  c #D6841E",
"9  c #D7841E",
"0  c #DA841F",
"q  c #D8861E",
"w  c #DC861F",
"e  c #D68C19",
"r  c #D78E18",
"t  c #D98A1C",
"y  c #DD8B1C",
"u  c #DD891E",
"i  c #D59215",
"p  c #D79414",
"a  c #D79514",
"s  c #D89713",
"d  c #D89614",
"f  c #D99813",
"g  c #DA9913",
"h  c #DA9A12",
"j  c #DD9E11",
"k  c #DE9F11",
"l  c #DD9C12",
"z  c #DD9914",
"x  c #DF9319",
"c  c #E1891F",
"v  c #E58C1F",
"b  c #E68D1F",
"n  c #E78E1F",
"m  c #E88F1E",
"M  c #E09F12",
"N  c #E19F12",
"B  c #E19B14",
"V  c #EC9F16",
"C  c #ED9E17",
"Z  c #E9901E",
"A  c #EA911E",
"S  c #EE951D",
"D  c #EF951D",
"F  c #ED971C",
"G  c #EF961D",
"H  c #E89819",
"J  c #EF9A1B",
"K  c #F0971D",
"L  c #F1971D",
"P  c #F59F1A",
"I  c #F79E1B",
"U  c #F2981D",
"Y  c #F2991D",
"T  c #F39A1C",
"R  c #F49A1C",
"E  c #F49B1C",
"W  c #F59C1C",
"Q  c #F69C1C",
"!  c #F69D1C",
"~  c #F79E1C",
"^  c #F89F1B",
"/  c #F99F1B",
"(  c #DFA010",
")  c #DFA110",
"_  c #DFA011",
"`  c #E1A40F",
"'  c #E2A40F",
"]  c #E2A50F",
"[  c #E4A70E",
"{  c #E5AA0D",
"}  c #E6AA0D",
"|  c #ECAA0F",
" . c #E8AD0C",
".. c #E8AE0C",
"X. c #E9AF0C",
"o. c #EAB00B",
"O. c #EBB10B",
"+. c #EBB30A",
"@. c #EBB20B",
"#. c #ECB30A",
"$. c #EDB509",
"%. c #EEB609",
"&. c #EEB709",
"*. c #ECB40A",
"=. c #EDB40A",
"-. c #EDB50A",
";. c #EFB808",
":. c #EFB809",
">. c #F2BC07",
",. c #F3BF06",
"<. c #F3BE07",
"1. c #F4BE06",
"2. c #F4BF06",
"3. c #F4B60B",
"4. c #F1B00E",
"5. c #F3B40D",
"6. c #F6B60D",
"7. c #F8B70D",
"8. c #FBB70D",
"9. c #FAB60E",
"0. c #F0B908",
"q. c #F1BA08",
"w. c #F1BB08",
"e. c #FABF09",
"r. c #FBBF09",
"t. c #FBBC0B",
"y. c #FCBC0B",
"u. c #FCBE0A",
"i. c #F8B80C",
"p. c #E1A011",
"a. c #E0A210",
"s. c #E1A310",
"d. c #E5A212",
"f. c #E7A312",
"g. c #E3A410",
"h. c #E6A411",
"j. c #EDA315",
"k. c #EFA514",
"l. c #F0A216",
"z. c #F0A316",
"x. c #F3A714",
"c. c #F3A715",
"v. c #F7A616",
"b. c #F4AF10",
"n. c #F7AF11",
"m. c #F4A914",
"M. c #FBAE13",
"N. c #F9A01B",
"B. c #FAA01B",
"V. c #FAA11B",
"C. c #F9A21A",
"Z. c #FAA21A",
"A. c #FBA21B",
"S. c #FAA419",
"D. c #FAA519",
"F. c #FCB013",
"G. c #D88021",
"H. c #D98021",
"J. c #D98121",
"K. c #DA8121",
"L. c #D98320",
"P. c #DA8320",
"I. c #DB8221",
"U. c #DB8321",
"Y. c #DA8022",
"T. c #DA8122",
"R. c #DC8321",
"E. c #DD8421",
"W. c #DE8421",
"Q. c #DE8521",
"!. c #DF8620",
"~. c #DE8720",
"^. c #E08720",
"/. c #E18820",
"(. c #E28820",
"). c #E28920",
"_. c #F5C105",
"`. c #F6C105",
"'. c #F5C205",
"]. c #F6C205",
"[. c #F4C006",
"{. c #F5C006",
"}. c #F5C106",
"|. c #F7C106",
" X c #F7C405",
".X c #F8C107",
"XX c #F9C704",
"oX c #FEC706",
"OX c #FAC803",
"+X c #FAC903",
"@X c #FBCA03",
"#X c #FCCB02",
"$X c #FDCB03",
"%X c #FDCD01",
"&X c #FECE01",
"*X c #FFCE01",
"=X c #FECF01",
"-X c #FFCF01",
";X c #FCCC02",
":X c #FDCC02",
">X c #FDCD02",
",X c #FFCF02",
"<X c #FFC805",
"1X c #FFC905",
"2X c #FECA04",
"3X c #FFD100",
"4X c #FFD001",
"5X c #FFD200",
"6X c #FFD300",
/* pixels */
"                                                                ",
"                                                                ",
"                                                                ",
"                                                                ",
"                        e ..w.=.w.O.p.` 1.                      ",
"                    6 j $.XX$X&X$X@X1.[ g _ {.                  ",
"                O j  X5X5X@Xr.i.7.t.oX5X&X..p O.                ",
"              + #.&X5X{.B 9 , ~.T.; T.V t.&X{.g ..              ",
"            + =.5X&Xp.q ^.L ~ ^ N.T A ; ; c.1X@Xg $.            ",
"            ..5X&Xh.~.! A.N.N.N.N.B.B.N.b T.v.1X{.p w.          ",
"          p &X&XN F N.N.N.N.^ ~ N.N.N.N.N.! U.x.5X..j           ",
"        X w.5X..q ^ N.N.^ N.m W.F B.N.N.N.N.n T.t.&Xp :.        ",
"        6 &X$Xe L ^ ^ ^ Q , $ o * ! ~ B.N.N.N.; V 5X{ j         ",
"        ` 5X=.y A.N.A.^ ^ m ~.L ~.T.B.B.N.B.B.A ~.1X{._         ",
"        w.5Xp.H A.A.^ ^ N.F ^.N.A T.B.B.B.B.~ ! ; .X&X$.        ",
"        {.5Xp j.^ ^ ^ A.A.L , W.# U.B.B.B.B.B.B., 6.&Xw.        ",
"        1.&Xp z.B.N.N.N.B.F /.~ F = A A.N.N.N.N.; 3.&X:.        ",
"        2.5Xs k.B.N.N.N.B.L /.N.A.).U.N.N.N.N.N.U.{.&X:.        ",
"          5Xs.f.A.C.B.N.B.T /.A.N.~.~.N.N.N.N.T t $X;X@.        ",
"          5Xw.j M.! B.B.! /., v ~.* ! N.N.N.N.b p.5Xw.7         ",
"          @X&Xg 4.A.N.N.! w % o , Q N.N.N.N.! 9 [.5Xp.          ",
"            5X=.g 7.N.N.N.N.L v T B.N.! N.N./.N 5X@X3           ",
"            XX5XO.=.t.N.C.C.N.N.~ B.B.C.N.F h.@X5X_             ",
"              &X5XO.g 3.F.A.N.C.B.B.N.C.y z &X5X:.+             ",
"                5X&X=.g j | b.M.m.j.B e { ;X5X{.3               ",
"                    5X&X=.s._ s.j N { XX5X&X$.@                 ",
"                      $X6X6X5X&X&X5X5X5X1.i .                   ",
"                            w.{.2.w._ @                         ",
"                                                                ",
"                                                                ",
"                                                                ",
"                                                                "
};
