/* XPM */
static char *result[] = {
/* columns rows colors chars-per-pixel */
"32 32 24 1 ",
"  c black",
". c #160E04",
"X c #321505",
"o c #502812",
"O c #62351D",
"+ c #7A472C",
"@ c #705836",
"# c #174141",
"$ c #2B5D5D",
"% c #457878",
"& c #9F0100",
"* c #FF0302",
"= c #A0642E",
"- c #825046",
"; c #8D6D48",
": c #9D674B",
"> c #A5835D",
", c #D5AF54",
"< c #659797",
"1 c #C98181",
"2 c #DBA1A1",
"3 c #FEFE82",
"4 c #EDC0C0",
"5 c None",
/* pixels */
"555555555555555555555   55555555",
"55555555555555     5 *&& 5555555",
"5555555555555 333,, *&* 55555555",
"55555555  55 333,,=*&* 555555555",
"5555555 3=   %<%$$*&*  555555555",
"55555555 33333333,,==== 55555555",
"555555555 ==ooooooooooo= 5555555",
"5555555555    --ooo     55555555",
"5555555555555 -1oo- 555555555555",
"55555555555   #11-#    555555555",
"5555555555 OOo%ooo$o;++ 55555555",
"555555555 oXO:$<<$#++Xoo 5555555",
"555555555  ##::+o+:OX#< 55555555",
"5555555555 %#+>+>OOO#<<$ 5555555",
"555555555 %%#;:+;O+XX%%< 5555555",
"55555    $%$#O:+;oOX  %%$ 555555",
"5555 42<<%$# XO@OoOo 5 %% 555555",
"5555 21-<$$  .XoOoX..5 $<% 55555",
"5555 11$%  5 %.3,..# 5 <$1 55555",
"55555    555 <%%%%%%$ 5 21 55555",
"55555555555 %<<%$%<<$ 5 21 55555",
"55555555555 <<%$ $%<% 55 1 55555",
"55555555555 <<$ 5 $<< 555 555555",
"5555555555 %<$ 55 $%%% 5555   55",
"5555555555 %%$ 555 $<% 5       5",
"5555555555 %<$ 555 $%$         5",
"5555555555 %$O 5    $oo       55",
"5555555555 oOo      Oo.      555",
"5555555555 Xoo      ooX     5555",
"555555555 OOoo      oOo    55555",
"55555555 OOOoX   55 XOOo  555555",
"555555555      5555      5555555"
};
