/* XPM */
static char *result[] = {
/* columns rows colors chars-per-pixel */
"32 32 7 1 ",
"  c gray3",
". c #101010",
"X c #191919",
"o c #232323",
"O c #2D2D2D",
"+ c gray21",
"@ c white",
/* pixels */
"                                ",
"+O+O+OO+OO+ ++OOO+O+O+o +OO++O. ",
"OoXXXXoXXXX OoXXXXXXXoX OXoOooX ",
"+Xooo.Xoo.X oXXXXXOoXX. XX.X.X. ",
".                               ",
"OXoooXX OooXOXoXoO XoooXXOooXOoX",
"+XXXXX. oXXXoXXoXX oXXXXXoXXOoX.",
"XXX.X.. OXooOoX.X. X..X..X.oo..X",
".                               ",
"OoOXXoOoXo XoooXoooXX XoXXoXXX. ",
"+XooOXXXXX oXXXXXXooo XXXoXXXXX ",
"oX.X...XX. oXX..XX.X. Xoo.XX.X. ",
".                               ",
"ooXooX. XoOoXOoXoXXOoXoXo oOXooX",
"+XXXXXX oXXooXXooXooXXXX. XooXXX",
"O..X.X. oXoXo..X.XX.X.... XoX..X",
".                               ",
"OoOXX ooOOXOXX. oOXooX OoXXXoX. ",
"OXooo oXXooXXX. OoXXX. ooooXXX. ",
"+..X. X.XX.X..X oXXX.. X..X...X ",
".                               ",
"+oOooX. OoXOooOXOoXOXXX oOoOXoOX",
"OXXXXX. oXXXoooXXXXXoX. OXXooXXX",
"+..X.X. oXo...X..XooX.. oo..X...",
".                               ",
"OoOoXoOoX oOooXooX OXXooooXOooX ",
"+oXXXXXXX oXXXXXXX ooXooXXXXXX. ",
"OXoooXooX X..X.... XX..XX...... ",
".                               ",
"OOoXo oOOOooXXOoXOX ooooXXX oOoX",
"+oooX oXXXXXooXoXX. oXXXXo. oXXX",
"+oXXX OXXX...XXXX.. .X.Xo.. X.X."
};
